<svg width="128" height="128" viewBox="0 0 128 128" fill="none" xmlns="http://www.w3.org/2000/svg">
<rect width="128" height="128" fill="#99CDDD"/>
<path d="M66.2585 95.2727C61.6222 95.2727 57.5237 94.6364 53.9631 93.3636C50.4025 92.1061 47.41 90.25 44.9858 87.7955C42.5616 85.3409 40.7282 82.3333 39.4858 78.7727C38.2434 75.2121 37.6222 71.1364 37.6222 66.5455C37.6222 62.1061 38.2509 58.1364 39.5085 54.6364C40.7813 51.1364 42.6222 48.1667 45.0312 45.7273C47.4555 43.2727 50.3949 41.4015 53.8494 40.1136C57.3191 38.8258 61.2434 38.1818 65.6222 38.1818C69.8797 38.1818 73.607 38.8788 76.804 40.2727C80.0161 41.6515 82.6979 43.5227 84.8494 45.8864C87.0161 48.2348 88.6373 50.8788 89.7131 53.8182C90.804 56.7576 91.3494 59.7879 91.3494 62.9091C91.3494 65.1061 91.2434 67.3333 91.0312 69.5909C90.8191 71.8485 90.3722 73.9242 89.6903 75.8182C89.0085 77.697 87.9555 79.2121 86.5312 80.3636C85.1222 81.5152 83.2131 82.0909 80.804 82.0909C79.7434 82.0909 78.5767 81.9242 77.304 81.5909C76.0312 81.2576 74.9025 80.7045 73.9176 79.9318C72.9328 79.1591 72.3494 78.1212 72.1676 76.8182H71.8949C71.5313 77.697 70.9706 78.5303 70.2131 79.3182C69.4706 80.1061 68.4934 80.7348 67.2812 81.2045C66.0843 81.6742 64.6222 81.8788 62.8949 81.8182C60.9252 81.7424 59.1903 81.303 57.6903 80.5C56.1903 79.6818 54.9328 78.5758 53.9176 77.1818C52.9176 75.7727 52.16 74.1439 51.6449 72.2955C51.1449 70.4318 50.8949 68.4242 50.8949 66.2727C50.8949 64.2273 51.1979 62.3561 51.804 60.6591C52.41 58.9621 53.2509 57.4773 54.3267 56.2045C55.4176 54.9318 56.6903 53.9167 58.1449 53.1591C59.6146 52.3864 61.1979 51.9091 62.8949 51.7273C64.41 51.5758 65.7888 51.6439 67.0312 51.9318C68.2737 52.2045 69.2964 52.6212 70.0994 53.1818C70.9025 53.7273 71.41 54.3333 71.6222 55H71.8949V52.4545H76.7131V73C76.7131 74.2727 77.0691 75.3939 77.7812 76.3636C78.4934 77.3333 79.5313 77.8182 80.8949 77.8182C82.4403 77.8182 83.6222 77.2879 84.4403 76.2273C85.2737 75.1667 85.8419 73.5303 86.1449 71.3182C86.4631 69.1061 86.6222 66.2727 86.6222 62.8182C86.6222 60.7879 86.3419 58.7879 85.7812 56.8182C85.2358 54.8333 84.4025 52.9773 83.2812 51.25C82.1752 49.5227 80.7737 48 79.0767 46.6818C77.3797 45.3636 75.3873 44.3333 73.0994 43.5909C70.8267 42.8333 68.2434 42.4545 65.3494 42.4545C61.7888 42.4545 58.5994 43.0076 55.7812 44.1136C52.9782 45.2045 50.5919 46.803 48.6222 48.9091C46.6676 51 45.1752 53.5455 44.1449 56.5455C43.1297 59.5303 42.6222 62.9242 42.6222 66.7273C42.6222 70.5909 43.1297 74.0227 44.1449 77.0227C45.1752 80.0227 46.6903 82.553 48.6903 84.6136C50.7055 86.6742 53.1979 88.2348 56.1676 89.2955C59.1373 90.3712 62.5616 90.9091 66.4403 90.9091C68.107 90.9091 69.7509 90.75 71.3722 90.4318C72.9934 90.1136 74.4252 89.7652 75.6676 89.3864C76.91 89.0076 77.804 88.7273 78.3494 88.5455L79.6222 92.7273C78.6828 93.1212 77.4555 93.5152 75.9403 93.9091C74.4403 94.303 72.8343 94.6288 71.1222 94.8864C69.4252 95.1439 67.804 95.2727 66.2585 95.2727ZM63.6222 77.1818C65.6525 77.1818 67.2964 76.7727 68.554 75.9545C69.8116 75.1364 70.7282 73.9015 71.304 72.25C71.8797 70.5985 72.1676 68.5152 72.1676 66C72.1676 63.4545 71.8494 61.4697 71.2131 60.0455C70.5767 58.6212 69.6373 57.6212 68.3949 57.0455C67.1525 56.4697 65.6222 56.1818 63.804 56.1818C62.0767 56.1818 60.5994 56.6364 59.3722 57.5455C58.16 58.4394 57.2282 59.6364 56.5767 61.1364C55.9403 62.6212 55.6222 64.2424 55.6222 66C55.6222 67.9394 55.8797 69.7652 56.3949 71.4773C56.91 73.1742 57.7509 74.553 58.9176 75.6136C60.0843 76.6591 61.6525 77.1818 63.6222 77.1818Z" fill="white"/>
</svg>
